<?xml version="1.0" standalone="no"?>
<!DOCTYPE svg PUBLIC "-//W3C//DTD SVG 20010904//EN"
 "http://www.w3.org/TR/2001/REC-SVG-20010904/DTD/svg10.dtd">
<svg version="1.0" xmlns="http://www.w3.org/2000/svg"
 width="512.000000pt" height="512.000000pt" viewBox="0 0 512.000000 512.000000"
 preserveAspectRatio="xMidYMid meet">
<metadata>
Created by potrace 1.14, written by Peter Selinger 2001-2017
</metadata>
<g transform="translate(0.000000,512.000000) scale(0.100000,-0.100000)"
fill="#000000" stroke="none">
<path d="M1028 4215 c-2 -2 -30 -5 -63 -8 -72 -6 -170 -30 -245 -60 -30 -12
-57 -22 -60 -22 -14 -1 -130 -69 -130 -76 0 -5 -5 -9 -11 -9 -12 0 -68 -43
-119 -91 -44 -41 -125 -151 -162 -219 -20 -36 -36 -67 -36 -70 0 -3 -9 -36
-21 -74 -30 -99 -36 -151 -35 -331 0 -170 9 -220 60 -358 28 -72 102 -190 156
-247 46 -48 133 -120 147 -120 6 0 11 -4 11 -9 0 -10 11 -16 142 -82 89 -45
217 -91 229 -83 5 3 9 1 9 -4 0 -5 44 -19 98 -31 341 -77 577 -184 706 -318
46 -48 103 -163 112 -228 10 -73 7 -166 -7 -216 -7 -24 -14 -50 -15 -58 -1 -8
-20 -48 -41 -90 -48 -97 -150 -201 -249 -253 -72 -38 -244 -92 -244 -76 0 5
-9 4 -21 -2 -31 -17 -240 -10 -339 12 -88 19 -219 78 -280 126 -85 67 -202
196 -227 252 -4 8 -9 17 -13 20 -15 13 -93 190 -122 278 -18 53 -33 98 -34
100 -1 3 -60 5 -90 3 l-21 -1 -1 -439 0 -439 51 -4 c41 -2 55 1 67 16 8 10 20
23 25 30 6 6 33 40 60 76 27 36 50 67 51 69 3 3 140 -85 154 -99 9 -9 85 -44
92 -42 5 1 8 -2 8 -8 0 -5 6 -10 13 -10 6 0 25 -7 41 -15 15 -8 38 -17 50 -20
11 -2 48 -11 81 -19 141 -35 394 -38 544 -5 81 17 221 62 221 71 0 4 7 8 15 8
18 0 127 64 169 100 77 65 186 193 186 218 0 7 4 12 8 12 7 0 44 64 46 80 1 3
7 19 13 35 22 53 36 90 38 95 2 8 25 112 30 140 26 133 24 369 -5 508 -11 57
-25 111 -30 120 -4 9 -15 35 -23 58 -22 58 -75 144 -126 206 -43 51 -161 158
-175 158 -4 0 -16 9 -28 20 -12 10 -25 17 -30 14 -4 -3 -8 -1 -8 4 0 10 -190
101 -265 126 -27 10 -57 20 -65 23 -16 7 -31 11 -57 17 -10 3 -18 5 -18 6 0 1
-7 3 -15 5 -25 5 -133 35 -175 49 -22 7 -60 19 -85 26 -127 36 -186 57 -270
99 -188 93 -268 210 -268 394 0 42 4 77 9 77 4 0 6 6 3 14 -7 19 41 134 74
175 34 44 122 132 122 123 0 -4 4 -2 8 5 20 31 186 104 293 129 39 9 260 10
265 2 3 -4 18 -8 34 -8 16 0 31 -4 35 -10 3 -5 12 -7 20 -3 8 3 15 0 15 -6 0
-6 3 -10 8 -9 12 4 74 -24 127 -57 62 -40 185 -153 185 -170 0 -7 3 -15 8 -17
12 -5 64 -78 55 -78 -4 0 -3 -4 3 -8 21 -14 124 -248 139 -316 1 -6 4 -18 7
-26 3 -8 10 -28 15 -45 6 -18 15 -29 24 -26 8 1 31 3 52 4 l37 1 -2 430 -3
430 -48 1 c-39 1 -51 -3 -70 -25 -12 -14 -23 -33 -25 -41 -2 -7 -7 -16 -10
-19 -4 -3 -16 -22 -27 -44 -11 -21 -25 -40 -32 -43 -7 -3 -30 8 -50 24 -105
81 -285 165 -376 177 -18 2 -43 7 -57 10 -25 7 -237 16 -242 11z"/>
<path d="M2267 4165 c-1 -5 -2 -237 -2 -515 l0 -505 76 -3 75 -3 3 48 c8 116
9 124 26 213 11 52 14 67 34 134 24 79 99 236 139 286 31 39 117 126 150 152
34 27 112 63 167 79 34 9 111 13 240 14 l190 0 0 -1480 0 -1480 -268 -1 c-181
-1 -271 -4 -276 -12 -3 -6 -5 -30 -3 -54 l4 -43 816 2 c449 1 823 2 830 2 9 1
12 16 10 53 l-3 52 -271 0 -272 0 0 1465 c-1 806 1 1473 4 1482 3 13 28 15
169 15 91 0 165 -3 165 -6 0 -3 12 -5 28 -5 36 -1 137 -42 187 -76 139 -96
249 -266 310 -474 14 -49 27 -100 30 -114 9 -59 17 -129 20 -186 1 -33 7 -59
11 -59 5 1 19 -2 31 -7 12 -4 24 -5 27 0 3 4 23 6 44 4 l39 -3 0 518 0 517
-1363 0 c-909 0 -1365 -3 -1367 -10z"/>
</g>
</svg>
