<svg xmlns="http://www.w3.org/2000/svg" width="42.998" height="42.999" viewBox="0 0 42.998 42.999">
  <g id="linkedin-svgrepo-com" style="mix-blend-mode: normal;isolation: isolate">
    <path id="Path_2" data-name="Path 2" d="M246,203.748v-.063c-.013.021-.031.042-.042.063Z" transform="translate(-222.714 -184.436)" fill-rule="evenodd"/>
    <path id="Path_3" data-name="Path 3" d="M0,0V43H43V0ZM13.374,35.722H6.995V16.529h6.379Zm-3.19-21.813h-.042a3.326,3.326,0,1,1,.084-6.633,3.327,3.327,0,1,1-.042,6.633Zm26.2,21.813H30V25.454c0-2.579-.922-4.34-3.231-4.34A3.489,3.489,0,0,0,23.5,23.448,4.372,4.372,0,0,0,23.285,25V35.722H16.9s.086-17.392,0-19.193h6.382v2.72a6.337,6.337,0,0,1,5.751-3.17c4.2,0,7.347,2.742,7.347,8.637Z" fill-rule="evenodd"/>
  </g>
</svg>
